# Blender v2.71 (sub 0) OBJ File: ''
# www.blender.org
v -0.707048 0.000000 0.707131
v 0.707165 0.000000 -0.707083
v 0.707165 2.000000 -0.707083
v -0.707048 2.000000 0.707131
vt 0.000000 0.000000
vt 1.000000 0.000000
vt 1.000000 1.000000
vt 0.000000 1.000000
vn 0.707100 -0.000000 0.707100
s off
f 1/1/1 2/2/1 3/3/1 4/4/1
v 0.707166 0.000000 0.706965
v -0.707049 0.000000 -0.707247
v -0.707049 2.000000 -0.707247
v 0.707166 2.000000 0.706965
vt 0.000000 0.000000
vt 1.000000 0.000000
vt 1.000000 1.000000
vt 0.000000 1.000000
vn 0.707100 -0.000000 -0.707100
s off
f 5/5/2 6/6/2 7/7/2 8/8/2
v 0.000118 0.000000 0.999883
v 0.000116 0.000000 -1.000117
v 0.000116 2.000000 -1.000117
v 0.000118 2.000000 0.999883
vt 0.000000 0.000000
vt 1.000000 0.000000
vt 1.000000 1.000000
vt 0.000000 1.000000
vn 1.000000 -0.000000 -0.000000
s off
f 9/9/3 10/10/3 11/11/3 12/12/3
v -1.000000 0.000000 -0.000000
v 1.000000 0.000000 -0.000000
v 1.000000 2.000000 0.000000
v -1.000000 2.000000 0.000000
vt 0.000000 0.000000
vt 1.000000 0.000000
vt 1.000000 1.000000
vt 0.000000 1.000000
vn 0.000000 -0.000000 1.000000
s off
f 13/13/4 14/14/4 15/15/4 16/16/4
